<svg xmlns="http://www.w3.org/2000/svg" width="148" height="29" fill="none" xmlns:v="https://vecta.io/nano"><g clip-path="url(#A)" fill="#000"><path d="M91.659.511l1.528-.075 9.11.028 2.836.078a13.84 13.84 0 0 1 6.4 1.895 8.56 8.56 0 0 1 2.552 2.302c.687.932 1.179 1.995 1.447 3.123.676 2.437.445 5.039-.651 7.317-.477 1.075-1.202 2.019-2.115 2.756-.367.28-.774.503-1.163.755l-1.342.875.248.467 1.467 2.174 3.534 4.947c.256.363.467.757.695 1.14.042.073.07.151.117.254h-.2-6.576a.26.26 0 0 1-.148-.035c-.044-.027-.08-.066-.102-.113l-4.85-7.018a5.63 5.63 0 0 0-.498-.559.36.36 0 0 0-.237-.098h-5.426-.148v7.722l-6.478.078V.511zm6.589 5.38v9.64l.871.045a30.05 30.05 0 0 0 4.811 0 9.06 9.06 0 0 0 2.682-.646c1.239-.534 2.135-1.398 2.505-2.728.226-.826.267-1.692.119-2.535a4.32 4.32 0 0 0-1.42-2.598 4.28 4.28 0 0 0-2.754-1.064l-5.843-.101-.971-.014zM6.467 17.049v11.459H0V.497h2.182 2.226a17.37 17.37 0 0 1 2.176.062v10.844h12.38v-.224-9.888c0-.196.042-.391.058-.587s.142-.226.278-.249a1.33 1.33 0 0 1 .236 0l5.813.034h.25v28.019h-6.456V17.144l-12.678-.095zM42.703 29a14.4 14.4 0 0 1-8.009-2.473 14.48 14.48 0 0 1-5.292-6.524 14.56 14.56 0 0 1-.793-8.378 14.52 14.52 0 0 1 3.973-7.409c2.025-2.021 4.6-3.394 7.401-3.945a14.38 14.38 0 0 1 8.336.848 14.45 14.45 0 0 1 6.463 5.356 14.55 14.55 0 0 1 2.413 8.059 14.54 14.54 0 0 1-1.11 5.554 14.49 14.49 0 0 1-3.146 4.701 14.42 14.42 0 0 1-4.7 3.131A14.37 14.37 0 0 1 42.703 29zm-.025-5.869c4.73 0 8.66-3.857 8.671-8.502 0-4.774-3.821-8.745-8.459-8.745-4.516 0-8.743 3.597-8.752 8.525-.006 4.779 3.837 8.706 8.54 8.715v.008zm31.734 5.866a14.38 14.38 0 0 1-5.587-1.037 14.43 14.43 0 0 1-4.756-3.123 14.51 14.51 0 0 1-3.188-4.724 14.55 14.55 0 0 1-1.126-5.593c-.003-1.921.375-3.823 1.11-5.597a14.5 14.5 0 0 1 3.174-4.733 14.43 14.43 0 0 1 4.747-3.136A14.38 14.38 0 0 1 74.37 0c7.972.014 14.492 6.484 14.47 14.377.003 7.717-6.041 14.629-14.428 14.62zm-.671-5.839c2.143-.02 3.784-.416 5.237-1.397 2.93-1.973 4.341-4.712 3.946-8.284a8.5 8.5 0 0 0-1.018-3.187 8.47 8.47 0 0 0-2.166-2.543 7.91 7.91 0 0 0-5.39-1.859 9.33 9.33 0 0 0-3.142.648c-2.413.922-4.121 2.557-4.925 5.048a8.86 8.86 0 0 0 .434 6.621c1.458 3.155 3.926 4.844 7.024 4.953zm43.36 5.35L132.548.159 148 28.508h-.211-6.609c-.059.005-.117-.009-.167-.04a.28.28 0 0 1-.112-.131l-8.259-15.85-.097-.179-.184.344-8.186 15.685c-.05.098-.095.171-.234.171h-6.679-.161z"/></g><defs><clipPath id="A"><path fill="#fff" d="M0 0h148v29H0z"/></clipPath></defs></svg>